<mxfile host="app.diagrams.net" modified="2022-11-02T02:42:14.016Z" agent="5.0 (Windows)" etag="JH874aKpIjOZgRq8Hv-I" version="20.5.1" type="github">
  <diagram id="I5cqvPbZDqFJgLh3EID4" name="Page-1">
    <mxGraphModel dx="1185" dy="1789" grid="1" gridSize="10" guides="1" tooltips="1" connect="1" arrows="1" fold="1" page="1" pageScale="1" pageWidth="827" pageHeight="1169" math="0" shadow="0">
      <root>
        <mxCell id="0" />
        <mxCell id="1" parent="0" />
        <mxCell id="_DgKhxUhO0Pn_QksGsDr-3" value="3" style="edgeStyle=orthogonalEdgeStyle;rounded=0;orthogonalLoop=1;jettySize=auto;html=1;" edge="1" parent="1" source="_DgKhxUhO0Pn_QksGsDr-1" target="_DgKhxUhO0Pn_QksGsDr-2">
          <mxGeometry relative="1" as="geometry" />
        </mxCell>
        <mxCell id="_DgKhxUhO0Pn_QksGsDr-23" value="2" style="edgeStyle=none;rounded=0;orthogonalLoop=1;jettySize=auto;html=1;exitX=1;exitY=1;exitDx=0;exitDy=0;entryX=0;entryY=0;entryDx=0;entryDy=0;" edge="1" parent="1" source="_DgKhxUhO0Pn_QksGsDr-1" target="_DgKhxUhO0Pn_QksGsDr-5">
          <mxGeometry relative="1" as="geometry" />
        </mxCell>
        <mxCell id="_DgKhxUhO0Pn_QksGsDr-24" value="2" style="edgeStyle=none;rounded=0;orthogonalLoop=1;jettySize=auto;html=1;exitX=1;exitY=0;exitDx=0;exitDy=0;entryX=0;entryY=1;entryDx=0;entryDy=0;" edge="1" parent="1" source="_DgKhxUhO0Pn_QksGsDr-1" target="_DgKhxUhO0Pn_QksGsDr-4">
          <mxGeometry relative="1" as="geometry" />
        </mxCell>
        <mxCell id="_DgKhxUhO0Pn_QksGsDr-1" value="s" style="ellipse;whiteSpace=wrap;html=1;aspect=fixed;" vertex="1" parent="1">
          <mxGeometry x="20" y="100" width="40" height="40" as="geometry" />
        </mxCell>
        <mxCell id="_DgKhxUhO0Pn_QksGsDr-8" value="1" style="edgeStyle=orthogonalEdgeStyle;rounded=0;orthogonalLoop=1;jettySize=auto;html=1;" edge="1" parent="1" source="_DgKhxUhO0Pn_QksGsDr-2" target="_DgKhxUhO0Pn_QksGsDr-7">
          <mxGeometry relative="1" as="geometry" />
        </mxCell>
        <mxCell id="_DgKhxUhO0Pn_QksGsDr-38" value="3" style="edgeStyle=none;rounded=0;orthogonalLoop=1;jettySize=auto;html=1;exitX=0;exitY=1;exitDx=0;exitDy=0;entryX=1;entryY=1;entryDx=0;entryDy=0;" edge="1" parent="1" source="_DgKhxUhO0Pn_QksGsDr-2" target="_DgKhxUhO0Pn_QksGsDr-1">
          <mxGeometry relative="1" as="geometry" />
        </mxCell>
        <mxCell id="_DgKhxUhO0Pn_QksGsDr-55" value="2" style="edgeStyle=none;rounded=0;orthogonalLoop=1;jettySize=auto;html=1;exitX=1;exitY=0;exitDx=0;exitDy=0;entryX=0;entryY=1;entryDx=0;entryDy=0;" edge="1" parent="1" source="_DgKhxUhO0Pn_QksGsDr-2" target="_DgKhxUhO0Pn_QksGsDr-15">
          <mxGeometry relative="1" as="geometry" />
        </mxCell>
        <mxCell id="_DgKhxUhO0Pn_QksGsDr-63" value="3" style="edgeStyle=none;rounded=0;orthogonalLoop=1;jettySize=auto;html=1;exitX=1;exitY=0;exitDx=0;exitDy=0;entryX=1;entryY=1;entryDx=0;entryDy=0;" edge="1" parent="1" source="_DgKhxUhO0Pn_QksGsDr-2" target="_DgKhxUhO0Pn_QksGsDr-4">
          <mxGeometry relative="1" as="geometry" />
        </mxCell>
        <mxCell id="_DgKhxUhO0Pn_QksGsDr-2" value="d" style="ellipse;whiteSpace=wrap;html=1;aspect=fixed;" vertex="1" parent="1">
          <mxGeometry x="140" y="100" width="40" height="40" as="geometry" />
        </mxCell>
        <mxCell id="_DgKhxUhO0Pn_QksGsDr-30" value="1" style="edgeStyle=none;rounded=0;orthogonalLoop=1;jettySize=auto;html=1;exitX=0.5;exitY=1;exitDx=0;exitDy=0;entryX=0.5;entryY=0;entryDx=0;entryDy=0;" edge="1" parent="1" source="_DgKhxUhO0Pn_QksGsDr-4" target="_DgKhxUhO0Pn_QksGsDr-2">
          <mxGeometry relative="1" as="geometry" />
        </mxCell>
        <mxCell id="_DgKhxUhO0Pn_QksGsDr-37" value="7" style="edgeStyle=none;rounded=0;orthogonalLoop=1;jettySize=auto;html=1;exitX=0;exitY=0.5;exitDx=0;exitDy=0;entryX=0.5;entryY=0;entryDx=0;entryDy=0;" edge="1" parent="1" source="_DgKhxUhO0Pn_QksGsDr-4" target="_DgKhxUhO0Pn_QksGsDr-1">
          <mxGeometry relative="1" as="geometry" />
        </mxCell>
        <mxCell id="_DgKhxUhO0Pn_QksGsDr-4" value="a" style="ellipse;whiteSpace=wrap;html=1;aspect=fixed;" vertex="1" parent="1">
          <mxGeometry x="140" width="40" height="40" as="geometry" />
        </mxCell>
        <mxCell id="_DgKhxUhO0Pn_QksGsDr-10" value="3" style="edgeStyle=orthogonalEdgeStyle;rounded=0;orthogonalLoop=1;jettySize=auto;html=1;" edge="1" parent="1" source="_DgKhxUhO0Pn_QksGsDr-5" target="_DgKhxUhO0Pn_QksGsDr-9">
          <mxGeometry relative="1" as="geometry" />
        </mxCell>
        <mxCell id="_DgKhxUhO0Pn_QksGsDr-41" style="edgeStyle=none;rounded=0;orthogonalLoop=1;jettySize=auto;html=1;exitX=0;exitY=0.5;exitDx=0;exitDy=0;entryX=0.5;entryY=1;entryDx=0;entryDy=0;" edge="1" parent="1" source="_DgKhxUhO0Pn_QksGsDr-5" target="_DgKhxUhO0Pn_QksGsDr-1">
          <mxGeometry relative="1" as="geometry" />
        </mxCell>
        <mxCell id="_DgKhxUhO0Pn_QksGsDr-67" value="9" style="edgeLabel;html=1;align=center;verticalAlign=middle;resizable=0;points=[];" vertex="1" connectable="0" parent="_DgKhxUhO0Pn_QksGsDr-41">
          <mxGeometry x="-0.2707" y="4" relative="1" as="geometry">
            <mxPoint as="offset" />
          </mxGeometry>
        </mxCell>
        <mxCell id="_DgKhxUhO0Pn_QksGsDr-68" value="2" style="edgeStyle=none;rounded=0;orthogonalLoop=1;jettySize=auto;html=1;exitX=0.5;exitY=0;exitDx=0;exitDy=0;entryX=0.5;entryY=1;entryDx=0;entryDy=0;" edge="1" parent="1" source="_DgKhxUhO0Pn_QksGsDr-5" target="_DgKhxUhO0Pn_QksGsDr-2">
          <mxGeometry relative="1" as="geometry" />
        </mxCell>
        <mxCell id="_DgKhxUhO0Pn_QksGsDr-5" value="g" style="ellipse;whiteSpace=wrap;html=1;aspect=fixed;" vertex="1" parent="1">
          <mxGeometry x="140" y="200" width="40" height="40" as="geometry" />
        </mxCell>
        <mxCell id="_DgKhxUhO0Pn_QksGsDr-32" value="5" style="edgeStyle=none;rounded=0;orthogonalLoop=1;jettySize=auto;html=1;exitX=0.5;exitY=0;exitDx=0;exitDy=0;entryX=0.5;entryY=1;entryDx=0;entryDy=0;" edge="1" parent="1" source="_DgKhxUhO0Pn_QksGsDr-7" target="_DgKhxUhO0Pn_QksGsDr-15">
          <mxGeometry relative="1" as="geometry" />
        </mxCell>
        <mxCell id="_DgKhxUhO0Pn_QksGsDr-53" value="4" style="edgeStyle=none;rounded=0;orthogonalLoop=1;jettySize=auto;html=1;exitX=1;exitY=1;exitDx=0;exitDy=0;entryX=1;entryY=0;entryDx=0;entryDy=0;" edge="1" parent="1" source="_DgKhxUhO0Pn_QksGsDr-7" target="_DgKhxUhO0Pn_QksGsDr-9">
          <mxGeometry relative="1" as="geometry" />
        </mxCell>
        <mxCell id="_DgKhxUhO0Pn_QksGsDr-56" value="5" style="edgeStyle=none;rounded=0;orthogonalLoop=1;jettySize=auto;html=1;exitX=0.5;exitY=1;exitDx=0;exitDy=0;entryX=1;entryY=0.5;entryDx=0;entryDy=0;" edge="1" parent="1" source="_DgKhxUhO0Pn_QksGsDr-7" target="_DgKhxUhO0Pn_QksGsDr-5">
          <mxGeometry relative="1" as="geometry" />
        </mxCell>
        <mxCell id="_DgKhxUhO0Pn_QksGsDr-70" value="6" style="edgeStyle=none;rounded=0;orthogonalLoop=1;jettySize=auto;html=1;exitX=0;exitY=1;exitDx=0;exitDy=0;entryX=1;entryY=1;entryDx=0;entryDy=0;" edge="1" parent="1" source="_DgKhxUhO0Pn_QksGsDr-7" target="_DgKhxUhO0Pn_QksGsDr-2">
          <mxGeometry relative="1" as="geometry" />
        </mxCell>
        <mxCell id="_DgKhxUhO0Pn_QksGsDr-73" value="3" style="edgeStyle=none;rounded=0;orthogonalLoop=1;jettySize=auto;html=1;exitX=1;exitY=1;exitDx=0;exitDy=0;entryX=0;entryY=1;entryDx=0;entryDy=0;" edge="1" parent="1" source="_DgKhxUhO0Pn_QksGsDr-7" target="_DgKhxUhO0Pn_QksGsDr-13">
          <mxGeometry relative="1" as="geometry" />
        </mxCell>
        <mxCell id="_DgKhxUhO0Pn_QksGsDr-7" value="e" style="ellipse;whiteSpace=wrap;html=1;aspect=fixed;" vertex="1" parent="1">
          <mxGeometry x="260" y="100" width="40" height="40" as="geometry" />
        </mxCell>
        <mxCell id="_DgKhxUhO0Pn_QksGsDr-12" value="1" style="edgeStyle=orthogonalEdgeStyle;rounded=0;orthogonalLoop=1;jettySize=auto;html=1;" edge="1" parent="1" source="_DgKhxUhO0Pn_QksGsDr-9" target="_DgKhxUhO0Pn_QksGsDr-11">
          <mxGeometry relative="1" as="geometry" />
        </mxCell>
        <mxCell id="_DgKhxUhO0Pn_QksGsDr-33" value="2" style="edgeStyle=none;rounded=0;orthogonalLoop=1;jettySize=auto;html=1;exitX=0.5;exitY=0;exitDx=0;exitDy=0;entryX=0.5;entryY=1;entryDx=0;entryDy=0;" edge="1" parent="1" source="_DgKhxUhO0Pn_QksGsDr-9" target="_DgKhxUhO0Pn_QksGsDr-7">
          <mxGeometry relative="1" as="geometry" />
        </mxCell>
        <mxCell id="_DgKhxUhO0Pn_QksGsDr-42" value="7" style="edgeStyle=none;rounded=0;orthogonalLoop=1;jettySize=auto;html=1;exitX=0;exitY=1;exitDx=0;exitDy=0;entryX=1;entryY=1;entryDx=0;entryDy=0;" edge="1" parent="1" source="_DgKhxUhO0Pn_QksGsDr-9" target="_DgKhxUhO0Pn_QksGsDr-5">
          <mxGeometry relative="1" as="geometry" />
        </mxCell>
        <mxCell id="_DgKhxUhO0Pn_QksGsDr-9" value="h" style="ellipse;whiteSpace=wrap;html=1;aspect=fixed;" vertex="1" parent="1">
          <mxGeometry x="260" y="200" width="40" height="40" as="geometry" />
        </mxCell>
        <mxCell id="_DgKhxUhO0Pn_QksGsDr-22" value="3" style="edgeStyle=none;rounded=0;orthogonalLoop=1;jettySize=auto;html=1;exitX=1;exitY=0;exitDx=0;exitDy=0;entryX=0;entryY=1;entryDx=0;entryDy=0;" edge="1" parent="1" source="_DgKhxUhO0Pn_QksGsDr-11" target="_DgKhxUhO0Pn_QksGsDr-19">
          <mxGeometry relative="1" as="geometry" />
        </mxCell>
        <mxCell id="_DgKhxUhO0Pn_QksGsDr-43" value="3" style="edgeStyle=none;rounded=0;orthogonalLoop=1;jettySize=auto;html=1;exitX=0;exitY=1;exitDx=0;exitDy=0;entryX=1.025;entryY=0.85;entryDx=0;entryDy=0;entryPerimeter=0;" edge="1" parent="1" source="_DgKhxUhO0Pn_QksGsDr-11" target="_DgKhxUhO0Pn_QksGsDr-9">
          <mxGeometry relative="1" as="geometry" />
        </mxCell>
        <mxCell id="_DgKhxUhO0Pn_QksGsDr-66" value="2" style="edgeStyle=none;rounded=0;orthogonalLoop=1;jettySize=auto;html=1;exitX=0.5;exitY=0;exitDx=0;exitDy=0;entryX=0.5;entryY=1;entryDx=0;entryDy=0;" edge="1" parent="1" source="_DgKhxUhO0Pn_QksGsDr-11" target="_DgKhxUhO0Pn_QksGsDr-13">
          <mxGeometry relative="1" as="geometry" />
        </mxCell>
        <mxCell id="_DgKhxUhO0Pn_QksGsDr-71" value="8" style="edgeStyle=none;rounded=0;orthogonalLoop=1;jettySize=auto;html=1;exitX=0;exitY=0;exitDx=0;exitDy=0;entryX=1;entryY=1;entryDx=0;entryDy=0;" edge="1" parent="1" source="_DgKhxUhO0Pn_QksGsDr-11" target="_DgKhxUhO0Pn_QksGsDr-7">
          <mxGeometry relative="1" as="geometry" />
        </mxCell>
        <mxCell id="_DgKhxUhO0Pn_QksGsDr-11" value="i" style="ellipse;whiteSpace=wrap;html=1;aspect=fixed;" vertex="1" parent="1">
          <mxGeometry x="380" y="200" width="40" height="40" as="geometry" />
        </mxCell>
        <mxCell id="_DgKhxUhO0Pn_QksGsDr-72" value="6" style="edgeStyle=none;rounded=0;orthogonalLoop=1;jettySize=auto;html=1;exitX=0;exitY=0.5;exitDx=0;exitDy=0;entryX=1;entryY=0.5;entryDx=0;entryDy=0;" edge="1" parent="1" source="_DgKhxUhO0Pn_QksGsDr-13" target="_DgKhxUhO0Pn_QksGsDr-7">
          <mxGeometry relative="1" as="geometry" />
        </mxCell>
        <mxCell id="_DgKhxUhO0Pn_QksGsDr-77" value="4" style="edgeStyle=none;rounded=0;orthogonalLoop=1;jettySize=auto;html=1;exitX=0;exitY=0;exitDx=0;exitDy=0;entryX=1;entryY=1;entryDx=0;entryDy=0;" edge="1" parent="1" source="_DgKhxUhO0Pn_QksGsDr-13" target="_DgKhxUhO0Pn_QksGsDr-15">
          <mxGeometry relative="1" as="geometry" />
        </mxCell>
        <mxCell id="_DgKhxUhO0Pn_QksGsDr-13" value="f" style="ellipse;whiteSpace=wrap;html=1;aspect=fixed;" vertex="1" parent="1">
          <mxGeometry x="380" y="100" width="40" height="40" as="geometry" />
        </mxCell>
        <mxCell id="_DgKhxUhO0Pn_QksGsDr-18" value="4" style="edgeStyle=orthogonalEdgeStyle;rounded=0;orthogonalLoop=1;jettySize=auto;html=1;" edge="1" parent="1" source="_DgKhxUhO0Pn_QksGsDr-15" target="_DgKhxUhO0Pn_QksGsDr-17">
          <mxGeometry relative="1" as="geometry" />
        </mxCell>
        <mxCell id="_DgKhxUhO0Pn_QksGsDr-52" value="4" style="edgeStyle=none;rounded=0;orthogonalLoop=1;jettySize=auto;html=1;exitX=1;exitY=1;exitDx=0;exitDy=0;entryX=1;entryY=0;entryDx=0;entryDy=0;" edge="1" parent="1" source="_DgKhxUhO0Pn_QksGsDr-15" target="_DgKhxUhO0Pn_QksGsDr-7">
          <mxGeometry relative="1" as="geometry" />
        </mxCell>
        <mxCell id="_DgKhxUhO0Pn_QksGsDr-54" value="1" style="edgeStyle=none;rounded=0;orthogonalLoop=1;jettySize=auto;html=1;exitX=0.5;exitY=1;exitDx=0;exitDy=0;entryX=1;entryY=0.5;entryDx=0;entryDy=0;" edge="1" parent="1" source="_DgKhxUhO0Pn_QksGsDr-15" target="_DgKhxUhO0Pn_QksGsDr-2">
          <mxGeometry relative="1" as="geometry" />
        </mxCell>
        <mxCell id="_DgKhxUhO0Pn_QksGsDr-69" value="4" style="edgeStyle=none;rounded=0;orthogonalLoop=1;jettySize=auto;html=1;exitX=0;exitY=0.5;exitDx=0;exitDy=0;entryX=1;entryY=0.5;entryDx=0;entryDy=0;" edge="1" parent="1" source="_DgKhxUhO0Pn_QksGsDr-15" target="_DgKhxUhO0Pn_QksGsDr-4">
          <mxGeometry relative="1" as="geometry" />
        </mxCell>
        <mxCell id="_DgKhxUhO0Pn_QksGsDr-15" value="b" style="ellipse;whiteSpace=wrap;html=1;aspect=fixed;" vertex="1" parent="1">
          <mxGeometry x="260" width="40" height="40" as="geometry" />
        </mxCell>
        <mxCell id="_DgKhxUhO0Pn_QksGsDr-21" value="3" style="rounded=0;orthogonalLoop=1;jettySize=auto;html=1;exitX=1;exitY=1;exitDx=0;exitDy=0;entryX=0;entryY=0;entryDx=0;entryDy=0;" edge="1" parent="1" source="_DgKhxUhO0Pn_QksGsDr-17" target="_DgKhxUhO0Pn_QksGsDr-19">
          <mxGeometry relative="1" as="geometry" />
        </mxCell>
        <mxCell id="_DgKhxUhO0Pn_QksGsDr-28" value="3" style="edgeStyle=none;rounded=0;orthogonalLoop=1;jettySize=auto;html=1;exitX=0.5;exitY=1;exitDx=0;exitDy=0;entryX=0.5;entryY=0;entryDx=0;entryDy=0;" edge="1" parent="1" source="_DgKhxUhO0Pn_QksGsDr-17" target="_DgKhxUhO0Pn_QksGsDr-13">
          <mxGeometry relative="1" as="geometry" />
        </mxCell>
        <mxCell id="_DgKhxUhO0Pn_QksGsDr-49" value="6" style="edgeStyle=none;rounded=0;orthogonalLoop=1;jettySize=auto;html=1;exitX=0;exitY=0;exitDx=0;exitDy=0;entryX=1;entryY=0;entryDx=0;entryDy=0;" edge="1" parent="1" source="_DgKhxUhO0Pn_QksGsDr-17" target="_DgKhxUhO0Pn_QksGsDr-15">
          <mxGeometry relative="1" as="geometry" />
        </mxCell>
        <mxCell id="_DgKhxUhO0Pn_QksGsDr-17" value="c" style="ellipse;whiteSpace=wrap;html=1;aspect=fixed;" vertex="1" parent="1">
          <mxGeometry x="380" width="40" height="40" as="geometry" />
        </mxCell>
        <mxCell id="_DgKhxUhO0Pn_QksGsDr-44" value="5" style="edgeStyle=none;rounded=0;orthogonalLoop=1;jettySize=auto;html=1;exitX=0.5;exitY=1;exitDx=0;exitDy=0;entryX=1;entryY=0.5;entryDx=0;entryDy=0;" edge="1" parent="1" source="_DgKhxUhO0Pn_QksGsDr-19" target="_DgKhxUhO0Pn_QksGsDr-11">
          <mxGeometry relative="1" as="geometry" />
        </mxCell>
        <mxCell id="_DgKhxUhO0Pn_QksGsDr-47" value="6" style="edgeStyle=none;rounded=0;orthogonalLoop=1;jettySize=auto;html=1;exitX=0.5;exitY=0;exitDx=0;exitDy=0;entryX=1;entryY=0.5;entryDx=0;entryDy=0;" edge="1" parent="1" source="_DgKhxUhO0Pn_QksGsDr-19" target="_DgKhxUhO0Pn_QksGsDr-17">
          <mxGeometry relative="1" as="geometry" />
        </mxCell>
        <mxCell id="_DgKhxUhO0Pn_QksGsDr-75" value="4" style="edgeStyle=none;rounded=0;orthogonalLoop=1;jettySize=auto;html=1;exitX=0;exitY=0.5;exitDx=0;exitDy=0;entryX=1;entryY=0.5;entryDx=0;entryDy=0;" edge="1" parent="1" source="_DgKhxUhO0Pn_QksGsDr-19" target="_DgKhxUhO0Pn_QksGsDr-13">
          <mxGeometry relative="1" as="geometry" />
        </mxCell>
        <mxCell id="_DgKhxUhO0Pn_QksGsDr-19" value="t" style="ellipse;whiteSpace=wrap;html=1;aspect=fixed;" vertex="1" parent="1">
          <mxGeometry x="500" y="100" width="40" height="40" as="geometry" />
        </mxCell>
      </root>
    </mxGraphModel>
  </diagram>
</mxfile>
